<svg width="227" height="240" viewBox="0 0 227 240" fill="none" xmlns="http://www.w3.org/2000/svg">
<path fill-rule="evenodd" clip-rule="evenodd" d="M131.876 4.59444C107.89 2.157 83.7408 7.25387 62.7854 19.1764C41.8301 31.0989 25.1104 49.2546 14.9509 71.1192C4.79138 92.9837 1.69703 117.47 6.09805 141.175C10.4991 164.88 22.1768 186.624 39.5075 203.384C56.8382 220.145 78.9607 231.089 102.799 234.695C126.637 238.301 151.007 234.39 172.52 223.505C194.032 212.62 211.619 195.303 222.834 173.961C223.348 172.983 224.557 172.607 225.535 173.121C226.513 173.634 226.889 174.844 226.375 175.821C214.773 197.9 196.58 215.814 174.326 227.074C152.071 238.334 126.861 242.381 102.201 238.65C77.5404 234.92 54.655 223.598 36.7267 206.26C18.7984 188.921 6.71804 166.427 2.16526 141.905C-2.38752 117.383 0.813526 92.0521 11.3233 69.4336C21.8332 46.8151 39.1294 28.0334 60.8074 15.6997C82.4853 3.36607 107.468 -1.90655 132.281 0.614937C157.094 3.13643 180.505 13.3267 199.259 29.769C200.089 30.4972 200.172 31.7608 199.444 32.5913C198.716 33.4219 197.452 33.5049 196.622 32.7767C178.493 16.8825 155.862 7.03188 131.876 4.59444Z" fill="#297ABF"/>
</svg>
