<svg width="195" height="196" viewBox="0 0 195 196" fill="none" xmlns="http://www.w3.org/2000/svg">
<path fill-rule="evenodd" clip-rule="evenodd" d="M113.078 5.21718C94.1753 2.14546 74.7856 4.92042 57.5035 13.1707C40.2214 21.4209 25.8715 34.7529 16.3742 51.3823C6.87688 68.0117 2.68528 87.1452 4.36036 106.222C6.03543 125.299 13.4973 143.409 25.7472 158.129C37.9972 172.849 54.4509 183.476 72.9063 188.589C91.3616 193.701 110.938 193.054 129.016 186.736C130.059 186.371 131.2 186.921 131.564 187.964C131.928 189.006 131.379 190.147 130.336 190.512C111.489 197.099 91.0792 197.773 71.8384 192.444C52.5977 187.114 35.4439 176.034 22.6726 160.688C9.9014 145.342 2.12204 126.461 0.375688 106.572C-1.37067 86.6833 2.9993 66.7356 12.9008 49.3986C22.8022 32.0615 37.7628 18.1623 55.7802 9.56092C73.7977 0.959584 94.0125 -1.93346 113.719 1.26897C133.426 4.4714 151.685 13.6165 166.051 27.4804C180.418 41.3443 190.208 59.2656 194.11 78.8458C194.326 79.9291 193.623 80.9822 192.539 81.1981C191.456 81.414 190.403 80.7109 190.187 79.6276C186.444 60.8466 177.054 43.6568 163.274 30.3588C149.493 17.0607 131.98 8.2889 113.078 5.21718Z" fill="#D3384B"/>
</svg>
