<svg width="197" height="196" viewBox="0 0 197 196" fill="none" xmlns="http://www.w3.org/2000/svg">
<path fill-rule="evenodd" clip-rule="evenodd" d="M119.373 6.4274C99.6482 1.85581 78.9746 3.77532 60.4288 11.9003C59.4171 12.3435 58.2376 11.8826 57.7943 10.8709C57.3511 9.85917 57.8119 8.67968 58.8237 8.23644C78.1587 -0.234241 99.712 -2.23543 120.276 2.53069C140.84 7.29682 159.316 18.5755 172.953 34.6881C186.59 50.8008 194.66 70.8862 195.962 91.9551C197.265 113.024 191.729 133.95 180.179 151.62C168.63 169.289 151.684 182.756 131.863 190.018C112.042 197.28 90.4064 197.948 70.1755 191.923C49.9447 185.897 32.2001 173.5 19.5826 156.577C6.96509 139.654 0.14917 119.109 0.14917 98C0.14917 96.8955 1.0446 96 2.14917 96C3.25374 96 4.14917 96.8955 4.14917 98C4.14917 118.248 10.6869 137.954 22.7894 154.186C34.8919 170.419 51.9122 182.31 71.3173 188.089C90.7225 193.869 111.475 193.228 130.487 186.263C149.498 179.297 165.753 166.379 176.831 149.431C187.909 132.483 193.219 112.411 191.97 92.2019C190.721 71.9929 182.98 52.7273 169.9 37.2723C156.819 21.8173 139.098 10.999 119.373 6.4274Z" fill="#8A8B99"/>
</svg>
