<svg width="204" height="218" viewBox="0 0 204 218" fill="none" xmlns="http://www.w3.org/2000/svg">
<path fill-rule="evenodd" clip-rule="evenodd" d="M110.474 5.27685C89.9592 2.04815 68.9479 4.97522 50.097 13.6879C31.246 22.4006 15.402 36.5076 4.56849 54.225C3.99227 55.1673 2.76122 55.4641 1.81886 54.8879C0.876497 54.3117 0.579678 53.0806 1.1559 52.1383C12.4021 33.746 28.8497 19.1016 48.4188 10.057C67.9879 1.01236 89.7996 -2.02621 111.096 1.32549C132.392 4.67719 152.215 14.2686 168.06 28.8869C183.905 43.5052 195.06 62.4937 200.113 83.4513C205.166 104.409 203.891 126.394 196.449 146.627C189.007 166.86 175.732 184.432 158.304 197.12C140.875 209.809 120.075 217.044 98.5345 217.912C76.9938 218.779 55.6796 213.239 37.2873 201.993C36.345 201.417 36.0481 200.186 36.6244 199.244C37.2006 198.301 38.4316 198.004 39.374 198.581C57.0914 209.414 77.6234 214.751 98.3736 213.915C119.124 213.08 139.16 206.11 155.949 193.887C172.738 181.664 185.526 164.737 192.695 145.246C199.863 125.756 201.092 104.577 196.224 84.3889C191.356 64.2004 180.611 45.9086 165.348 31.8268C150.085 17.745 130.988 8.50555 110.474 5.27685Z" fill="#3D97DC"/>
</svg>
