<svg width="353" height="344" viewBox="0 0 353 344" fill="none" xmlns="http://www.w3.org/2000/svg">
<path fill-rule="evenodd" clip-rule="evenodd" d="M124.691 1.77098C125.03 2.82232 124.452 3.94921 123.401 4.28796C88.1312 15.6519 57.4745 38.1021 35.9947 68.2966C14.5148 98.491 3.36052 134.815 4.19229 171.861C5.02405 208.907 17.7974 244.693 40.6108 273.893C63.4242 303.093 95.0576 324.145 130.802 333.915C166.546 343.684 204.489 341.649 238.983 328.112C273.478 314.575 302.678 290.26 322.237 258.788C341.796 227.315 350.668 190.367 347.532 153.445C344.396 116.523 329.42 81.6002 304.834 53.8766C304.101 53.0502 304.177 51.7861 305.003 51.0532C305.83 50.3204 307.094 50.3962 307.827 51.2226C332.985 79.5909 348.309 115.325 351.518 153.106C354.726 190.887 345.648 228.694 325.634 260.899C305.62 293.104 275.741 317.984 240.445 331.835C205.148 345.687 166.323 347.77 129.747 337.773C93.1718 327.776 60.8027 306.235 37.4587 276.356C14.1148 246.477 1.0444 209.858 0.193294 171.951C-0.657816 134.043 10.7559 96.8745 32.7353 65.9779C54.7146 35.0812 86.0843 12.1089 122.174 0.480699C123.226 0.141956 124.352 0.719634 124.691 1.77098Z" fill="#02477C"/>
</svg>
